<svg width="252" height="28" viewBox="0 0 252 28" fill="none" xmlns="http://www.w3.org/2000/svg">
<path d="M71.0722 23L71.0522 14.6L66.9321 21.52H65.4722L61.3721 14.78V23H58.3321V9H61.0121L66.2522 17.7L71.4122 9H74.0722L74.1122 23H71.0722ZM81.5537 12.08C83.2204 12.08 84.5004 12.48 85.3937 13.28C86.287 14.0667 86.7337 15.26 86.7337 16.86V23H83.8137V21.66C83.227 22.66 82.1337 23.16 80.5337 23.16C79.707 23.16 78.987 23.02 78.3737 22.74C77.7737 22.46 77.3137 22.0733 76.9937 21.58C76.6737 21.0867 76.5137 20.5267 76.5137 19.9C76.5137 18.9 76.887 18.1133 77.6337 17.54C78.3937 16.9667 79.5604 16.68 81.1337 16.68H83.6137C83.6137 16 83.407 15.48 82.9937 15.12C82.5804 14.7467 81.9604 14.56 81.1337 14.56C80.5604 14.56 79.9937 14.6533 79.4337 14.84C78.887 15.0133 78.4204 15.2533 78.0337 15.56L76.9137 13.38C77.5004 12.9667 78.2004 12.6467 79.0137 12.42C79.8404 12.1933 80.687 12.08 81.5537 12.08ZM81.3137 21.06C81.847 21.06 82.3204 20.94 82.7337 20.7C83.147 20.4467 83.4404 20.08 83.6137 19.6V18.5H81.4737C80.1937 18.5 79.5537 18.92 79.5537 19.76C79.5537 20.16 79.707 20.48 80.0137 20.72C80.3337 20.9467 80.767 21.06 81.3137 21.06ZM93.1775 23.16C92.2841 23.16 91.4108 23.0533 90.5575 22.84C89.7041 22.6133 89.0241 22.3333 88.5175 22L89.5575 19.76C90.0375 20.0667 90.6175 20.32 91.2975 20.52C91.9775 20.7067 92.6441 20.8 93.2975 20.8C94.6175 20.8 95.2775 20.4733 95.2775 19.82C95.2775 19.5133 95.0975 19.2933 94.7375 19.16C94.3775 19.0267 93.8241 18.9133 93.0775 18.82C92.1975 18.6867 91.4708 18.5333 90.8975 18.36C90.3241 18.1867 89.8241 17.88 89.3975 17.44C88.9841 17 88.7775 16.3733 88.7775 15.56C88.7775 14.88 88.9708 14.28 89.3575 13.76C89.7575 13.2267 90.3308 12.8133 91.0775 12.52C91.8375 12.2267 92.7308 12.08 93.7575 12.08C94.5175 12.08 95.2708 12.1667 96.0175 12.34C96.7775 12.5 97.4041 12.7267 97.8975 13.02L96.8575 15.24C95.9108 14.7067 94.8775 14.44 93.7575 14.44C93.0908 14.44 92.5908 14.5333 92.2575 14.72C91.9241 14.9067 91.7575 15.1467 91.7575 15.44C91.7575 15.7733 91.9375 16.0067 92.2975 16.14C92.6575 16.2733 93.2308 16.4 94.0175 16.52C94.8975 16.6667 95.6175 16.8267 96.1775 17C96.7375 17.16 97.2241 17.46 97.6375 17.9C98.0508 18.34 98.2575 18.9533 98.2575 19.74C98.2575 20.4067 98.0575 21 97.6575 21.52C97.2575 22.04 96.6708 22.4467 95.8975 22.74C95.1375 23.02 94.2308 23.16 93.1775 23.16ZM99.3825 27.04C98.2891 27.04 97.4558 26.84 96.8825 26.44L97.7225 24.18C98.0825 24.4333 98.5225 24.56 99.0425 24.56C99.4425 24.56 99.7558 24.4267 99.9825 24.16C100.209 23.9067 100.322 23.52 100.322 23V12.24H103.442V22.98C103.442 24.2333 103.082 25.22 102.362 25.94C101.656 26.6733 100.662 27.04 99.3825 27.04ZM101.882 10.74C101.309 10.74 100.842 10.5733 100.482 10.24C100.122 9.90667 99.9425 9.49333 99.9425 9C99.9425 8.50667 100.122 8.09333 100.482 7.76C100.842 7.42667 101.309 7.26 101.882 7.26C102.456 7.26 102.922 7.42 103.282 7.74C103.642 8.06 103.822 8.46 103.822 8.94C103.822 9.46 103.642 9.89333 103.282 10.24C102.922 10.5733 102.456 10.74 101.882 10.74ZM106.315 12.24H109.435V23H106.315V12.24ZM107.875 10.74C107.302 10.74 106.835 10.5733 106.475 10.24C106.115 9.90667 105.935 9.49333 105.935 9C105.935 8.50667 106.115 8.09333 106.475 7.76C106.835 7.42667 107.302 7.26 107.875 7.26C108.449 7.26 108.915 7.42 109.275 7.74C109.635 8.06 109.815 8.46 109.815 8.94C109.815 9.46 109.635 9.89333 109.275 10.24C108.915 10.5733 108.449 10.74 107.875 10.74ZM123.291 8.16V23H120.311V21.76C119.538 22.6933 118.418 23.16 116.951 23.16C115.938 23.16 115.018 22.9333 114.191 22.48C113.378 22.0267 112.738 21.38 112.271 20.54C111.804 19.7 111.571 18.7267 111.571 17.62C111.571 16.5133 111.804 15.54 112.271 14.7C112.738 13.86 113.378 13.2133 114.191 12.76C115.018 12.3067 115.938 12.08 116.951 12.08C118.324 12.08 119.398 12.5133 120.171 13.38V8.16H123.291ZM117.491 20.6C118.278 20.6 118.931 20.3333 119.451 19.8C119.971 19.2533 120.231 18.5267 120.231 17.62C120.231 16.7133 119.971 15.9933 119.451 15.46C118.931 14.9133 118.278 14.64 117.491 14.64C116.691 14.64 116.031 14.9133 115.511 15.46C114.991 15.9933 114.731 16.7133 114.731 17.62C114.731 18.5267 114.991 19.2533 115.511 19.8C116.031 20.3333 116.691 20.6 117.491 20.6ZM144.803 23L144.783 14.6L140.663 21.52H139.203L135.103 14.78V23H132.063V9H134.743L139.983 17.7L145.143 9H147.803L147.843 23H144.803ZM161.784 12.24V23H158.824V21.72C158.411 22.1867 157.918 22.5467 157.344 22.8C156.771 23.04 156.151 23.16 155.484 23.16C154.071 23.16 152.951 22.7533 152.124 21.94C151.298 21.1267 150.884 19.92 150.884 18.32V12.24H154.004V17.86C154.004 19.5933 154.731 20.46 156.184 20.46C156.931 20.46 157.531 20.22 157.984 19.74C158.438 19.2467 158.664 18.52 158.664 17.56V12.24H161.784ZM165.875 8C166.435 8 166.895 8.18 167.255 8.54C167.615 8.88667 167.795 9.34667 167.795 9.92C167.795 10.1867 167.761 10.4533 167.695 10.72C167.628 10.9867 167.488 11.3867 167.275 11.92L166.115 14.8H164.135L164.995 11.64C164.661 11.4933 164.401 11.2733 164.215 10.98C164.028 10.6867 163.935 10.3333 163.935 9.92C163.935 9.34667 164.115 8.88667 164.475 8.54C164.848 8.18 165.315 8 165.875 8ZM174.054 12.08C175.72 12.08 177 12.48 177.894 13.28C178.787 14.0667 179.234 15.26 179.234 16.86V23H176.314V21.66C175.727 22.66 174.634 23.16 173.034 23.16C172.207 23.16 171.487 23.02 170.874 22.74C170.274 22.46 169.814 22.0733 169.494 21.58C169.174 21.0867 169.014 20.5267 169.014 19.9C169.014 18.9 169.387 18.1133 170.134 17.54C170.894 16.9667 172.06 16.68 173.634 16.68H176.114C176.114 16 175.907 15.48 175.494 15.12C175.08 14.7467 174.46 14.56 173.634 14.56C173.06 14.56 172.494 14.6533 171.934 14.84C171.387 15.0133 170.92 15.2533 170.534 15.56L169.414 13.38C170 12.9667 170.7 12.6467 171.514 12.42C172.34 12.1933 173.187 12.08 174.054 12.08ZM173.814 21.06C174.347 21.06 174.82 20.94 175.234 20.7C175.647 20.4467 175.94 20.08 176.114 19.6V18.5H173.974C172.694 18.5 172.054 18.92 172.054 19.76C172.054 20.16 172.207 20.48 172.514 20.72C172.834 20.9467 173.267 21.06 173.814 21.06ZM199.142 12.24L195.242 23H192.242L189.822 16.32L187.322 23H184.322L180.442 12.24H183.382L185.922 19.52L188.562 12.24H191.202L193.762 19.52L196.382 12.24H199.142ZM204.581 12.08C206.248 12.08 207.528 12.48 208.421 13.28C209.314 14.0667 209.761 15.26 209.761 16.86V23H206.841V21.66C206.254 22.66 205.161 23.16 203.561 23.16C202.734 23.16 202.014 23.02 201.401 22.74C200.801 22.46 200.341 22.0733 200.021 21.58C199.701 21.0867 199.541 20.5267 199.541 19.9C199.541 18.9 199.914 18.1133 200.661 17.54C201.421 16.9667 202.588 16.68 204.161 16.68H206.641C206.641 16 206.434 15.48 206.021 15.12C205.608 14.7467 204.988 14.56 204.161 14.56C203.588 14.56 203.021 14.6533 202.461 14.84C201.914 15.0133 201.448 15.2533 201.061 15.56L199.941 13.38C200.528 12.9667 201.228 12.6467 202.041 12.42C202.868 12.1933 203.714 12.08 204.581 12.08ZM204.341 21.06C204.874 21.06 205.348 20.94 205.761 20.7C206.174 20.4467 206.468 20.08 206.641 19.6V18.5H204.501C203.221 18.5 202.581 18.92 202.581 19.76C202.581 20.16 202.734 20.48 203.041 20.72C203.361 20.9467 203.794 21.06 204.341 21.06ZM219.125 12.08C220.458 12.08 221.531 12.48 222.345 13.28C223.171 14.08 223.585 15.2667 223.585 16.84V23H220.465V17.32C220.465 16.4667 220.278 15.8333 219.905 15.42C219.531 14.9933 218.991 14.78 218.285 14.78C217.498 14.78 216.871 15.0267 216.405 15.52C215.938 16 215.705 16.72 215.705 17.68V23H212.585V12.24H215.565V13.5C215.978 13.0467 216.491 12.7 217.105 12.46C217.718 12.2067 218.391 12.08 219.125 12.08ZM230.753 12.08C232.42 12.08 233.7 12.48 234.593 13.28C235.486 14.0667 235.933 15.26 235.933 16.86V23H233.013V21.66C232.426 22.66 231.333 23.16 229.733 23.16C228.906 23.16 228.186 23.02 227.573 22.74C226.973 22.46 226.513 22.0733 226.193 21.58C225.873 21.0867 225.713 20.5267 225.713 19.9C225.713 18.9 226.086 18.1133 226.833 17.54C227.593 16.9667 228.76 16.68 230.333 16.68H232.813C232.813 16 232.606 15.48 232.193 15.12C231.78 14.7467 231.16 14.56 230.333 14.56C229.76 14.56 229.193 14.6533 228.633 14.84C228.086 15.0133 227.62 15.2533 227.233 15.56L226.113 13.38C226.7 12.9667 227.4 12.6467 228.213 12.42C229.04 12.1933 229.886 12.08 230.753 12.08ZM230.513 21.06C231.046 21.06 231.52 20.94 231.933 20.7C232.346 20.4467 232.64 20.08 232.813 19.6V18.5H230.673C229.393 18.5 228.753 18.92 228.753 19.76C228.753 20.16 228.906 20.48 229.213 20.72C229.533 20.9467 229.966 21.06 230.513 21.06ZM245.297 12.08C246.63 12.08 247.703 12.48 248.517 13.28C249.343 14.08 249.757 15.2667 249.757 16.84V23H246.637V17.32C246.637 16.4667 246.45 15.8333 246.077 15.42C245.703 14.9933 245.163 14.78 244.457 14.78C243.67 14.78 243.043 15.0267 242.577 15.52C242.11 16 241.877 16.72 241.877 17.68V23H238.757V8.16H241.877V13.36C242.29 12.9467 242.79 12.6333 243.377 12.42C243.963 12.1933 244.603 12.08 245.297 12.08Z" fill="#B23256"/>
<path d="M33.0975 14.2397L34.4975 13.4911V15.574C35.9971 17.152 37.3058 19.109 38.1328 21.661V10.4611C38.1328 9.82077 37.7964 9.23457 37.2512 8.91021C36.6966 8.58536 36.015 8.56764 35.4514 8.87428L29.8799 11.8683L28.9711 12.3551L25.3264 14.3209L24.4265 14.8077L20.0094 17.1791L15.6558 14.8436L14.7381 14.3475L11.0844 12.3817L10.1845 11.8949L4.56791 8.87379C4.00437 8.56715 3.32275 8.58536 2.76813 8.90972C2.21351 9.23457 1.87767 9.82028 1.87767 10.4606V21.7053C2.6957 19.1533 4.0133 17.1968 5.51295 15.6183V13.4901L6.9491 14.2658L7.79442 14.7166L11.2938 16.5924L12.1753 17.0703L19.1462 20.8125C19.6825 21.1009 20.3368 21.1009 20.8731 20.8125L27.8807 17.0521L28.7623 16.5742L32.2522 14.6984L33.0975 14.2397Z" fill="#B23256"/>
<path d="M3.68191 7.30615C5.71538 7.30615 7.36383 5.67061 7.36383 3.65307C7.36383 1.63554 5.71538 0 3.68191 0C1.64845 0 0 1.63554 0 3.65307C0 5.67061 1.64845 7.30615 3.68191 7.30615Z" fill="#31AA75"/>
<path d="M36.3181 7.30615C38.3516 7.30615 40 5.67061 40 3.65307C40 1.63554 38.3516 0 36.3181 0C34.2846 0 32.6362 1.63554 32.6362 3.65307C32.6362 5.67061 34.2846 7.30615 36.3181 7.30615Z" fill="#31AA75"/>
<path d="M6.42226 15.9619C6.11321 16.2685 5.80415 16.5929 5.51344 16.9448C3.5321 19.2896 2.04137 22.4544 1.87816 27.0983C1.86923 27.3961 1.85981 27.6934 1.85981 28H5.51394V27.1072C5.59579 25.2673 5.91378 23.7346 6.42276 22.4269C7.31323 20.1185 8.77667 18.5223 10.4946 17.1968L7.06816 15.3481C6.84939 15.547 6.63111 15.7453 6.42226 15.9619Z" fill="#31AA75"/>
<path d="M20.0918 9.7307C21.2551 11.3987 22.8366 12.6524 24.4632 13.7524L28.0985 11.7955C24.1542 9.27936 21.9183 7.66545 21.9183 3.65258C21.9183 2.66081 21.1003 1.84918 20.1007 1.84918C19.0917 1.84918 18.2831 2.66081 18.2831 3.65258C18.2831 7.66545 16.011 9.28871 11.9937 11.8043C11.9848 11.8132 11.9665 11.8225 11.9575 11.8225L15.6112 13.7884C17.274 12.6794 18.9012 11.4258 20.0918 9.7307Z" fill="#31AA75"/>
<path d="M34.4975 16.8995C34.2068 16.5476 33.8977 16.2232 33.5886 15.9077C33.3887 15.7094 33.1888 15.5199 32.9795 15.3304L29.553 17.1697C31.2526 18.4952 32.7066 20.0914 33.5886 22.3909C34.0976 23.6982 34.4156 25.2496 34.4975 27.1072V28H38.1516C38.1516 27.6934 38.1427 27.3961 38.1332 27.0983C37.969 22.4274 36.4877 19.2532 34.4975 16.8995Z" fill="#31AA75"/>
</svg>
