<svg width="271" height="39" viewBox="0 0 271 39" fill="none" xmlns="http://www.w3.org/2000/svg">
<path d="M68.88 16.16V32H64.56V25.664L64.656 20.552H64.608L61.128 32H57.192L53.76 20.552H53.688L53.784 25.664V32H49.464V16.16H56.376L58.512 23.672L59.304 26.816H59.352L60.144 23.672L62.28 16.16H68.88ZM78.0651 24.44C78.0651 23.992 77.9451 23.64 77.7051 23.384C77.4811 23.112 77.1451 22.976 76.6971 22.976C76.2811 22.976 75.9211 23.088 75.6171 23.312C75.3291 23.536 75.1451 23.96 75.0651 24.584L70.9611 23.84C71.1211 22.592 71.7051 21.6 72.7131 20.864C73.7211 20.128 75.1611 19.76 77.0331 19.76C78.3131 19.76 79.3851 19.944 80.2491 20.312C81.1291 20.664 81.7851 21.184 82.2171 21.872C82.6651 22.56 82.8891 23.384 82.8891 24.344V28.376C82.8891 29.016 83.1771 29.336 83.7531 29.336C83.9931 29.336 84.1771 29.304 84.3051 29.24L84.0651 31.856C83.5371 32.112 82.8811 32.24 82.0971 32.24C81.4091 32.24 80.8011 32.136 80.2731 31.928C79.7451 31.704 79.3291 31.384 79.0251 30.968C78.7211 30.552 78.5691 30.008 78.5691 29.336V29.144L79.0491 29.072C79.0491 29.712 78.8491 30.272 78.4491 30.752C78.0651 31.232 77.5531 31.6 76.9131 31.856C76.2891 32.112 75.5931 32.24 74.8251 32.24C73.9931 32.24 73.2811 32.112 72.6891 31.856C72.0971 31.6 71.6411 31.232 71.3211 30.752C71.0171 30.272 70.8651 29.688 70.8651 29C70.8651 28.12 71.1291 27.4 71.6571 26.84C72.2011 26.28 73.0171 25.896 74.1051 25.688L78.4491 24.776L78.4251 26.816L76.6491 27.224C76.2491 27.304 75.9531 27.44 75.7611 27.632C75.5851 27.808 75.4971 28.056 75.4971 28.376C75.4971 28.68 75.6011 28.92 75.8091 29.096C76.0171 29.256 76.2731 29.336 76.5771 29.336C76.7851 29.336 76.9771 29.304 77.1531 29.24C77.3291 29.176 77.4811 29.08 77.6091 28.952C77.7531 28.824 77.8651 28.664 77.9451 28.472C78.0251 28.28 78.0651 28.048 78.0651 27.776V24.44ZM90.7847 32.24C89.6007 32.24 88.4807 32.064 87.4247 31.712C86.3687 31.36 85.4647 30.84 84.7127 30.152L86.6567 27.584C87.0887 28.016 87.6407 28.392 88.3127 28.712C89.0007 29.032 89.7207 29.192 90.4727 29.192C90.8567 29.192 91.1767 29.144 91.4327 29.048C91.7047 28.952 91.8407 28.784 91.8407 28.544C91.8407 28.384 91.7687 28.256 91.6247 28.16C91.4967 28.048 91.2167 27.952 90.7847 27.872L89.5367 27.632C87.9047 27.312 86.7447 26.848 86.0567 26.24C85.3847 25.616 85.0487 24.8 85.0487 23.792C85.0487 23.136 85.2487 22.504 85.6487 21.896C86.0647 21.272 86.7127 20.76 87.5927 20.36C88.4887 19.96 89.6407 19.76 91.0487 19.76C92.2807 19.76 93.3767 19.928 94.3367 20.264C95.3127 20.584 96.0887 21.048 96.6647 21.656L94.7687 24.152C94.3367 23.736 93.7927 23.408 93.1367 23.168C92.4807 22.928 91.8567 22.808 91.2647 22.808C90.9607 22.808 90.7047 22.832 90.4967 22.88C90.2887 22.928 90.1287 23 90.0167 23.096C89.9207 23.176 89.8727 23.288 89.8727 23.432C89.8727 23.592 89.9607 23.736 90.1367 23.864C90.3287 23.976 90.6727 24.08 91.1687 24.176L93.0887 24.512C94.3527 24.736 95.2727 25.152 95.8487 25.76C96.4247 26.368 96.7127 27.112 96.7127 27.992C96.7127 28.776 96.5047 29.488 96.0887 30.128C95.6727 30.768 95.0247 31.28 94.1447 31.664C93.2807 32.048 92.1607 32.24 90.7847 32.24ZM100.772 18.944C99.8119 18.944 99.1159 18.776 98.6839 18.44C98.2679 18.104 98.0599 17.56 98.0599 16.808C98.0599 16.04 98.2679 15.488 98.6839 15.152C99.1159 14.816 99.8119 14.648 100.772 14.648C101.732 14.648 102.42 14.816 102.836 15.152C103.268 15.488 103.484 16.04 103.484 16.808C103.484 17.56 103.268 18.104 102.836 18.44C102.42 18.776 101.732 18.944 100.772 18.944ZM103.196 20V32.48C103.196 33.584 103.012 34.48 102.644 35.168C102.276 35.856 101.724 36.36 100.988 36.68C100.252 37 99.3239 37.16 98.2039 37.16C97.4999 37.16 96.8679 37.096 96.3079 36.968C95.7479 36.84 95.2439 36.656 94.7959 36.416L95.4199 33.464C95.5799 33.576 95.7799 33.664 96.0199 33.728C96.2439 33.792 96.4999 33.824 96.7879 33.824C97.2679 33.824 97.6439 33.688 97.9159 33.416C98.2039 33.16 98.3479 32.704 98.3479 32.048V20H103.196ZM107.967 18.944C107.007 18.944 106.311 18.776 105.879 18.44C105.463 18.104 105.255 17.56 105.255 16.808C105.255 16.04 105.463 15.488 105.879 15.152C106.311 14.816 107.007 14.648 107.967 14.648C108.927 14.648 109.615 14.816 110.031 15.152C110.463 15.488 110.679 16.04 110.679 16.808C110.679 17.56 110.463 18.104 110.031 18.44C109.615 18.776 108.927 18.944 107.967 18.944ZM110.391 20V32H105.543V20H110.391ZM117.059 32.24C116.083 32.24 115.235 32 114.515 31.52C113.811 31.024 113.267 30.312 112.883 29.384C112.515 28.456 112.331 27.344 112.331 26.048C112.331 24.72 112.523 23.592 112.907 22.664C113.291 21.72 113.843 21 114.562 20.504C115.299 20.008 116.155 19.76 117.131 19.76C118.267 19.76 119.155 20.12 119.795 20.84C120.435 21.544 120.843 22.448 121.019 23.552L120.587 24.152V15.056H125.435V32H121.067L120.779 27.512L121.331 28.064C121.235 28.88 120.995 29.608 120.611 30.248C120.243 30.872 119.755 31.36 119.147 31.712C118.555 32.064 117.859 32.24 117.059 32.24ZM118.931 28.784C119.283 28.784 119.579 28.68 119.819 28.472C120.059 28.264 120.243 27.952 120.371 27.536C120.515 27.12 120.587 26.6 120.587 25.976C120.587 25.384 120.523 24.888 120.395 24.488C120.283 24.072 120.099 23.76 119.843 23.552C119.603 23.344 119.299 23.24 118.931 23.24C118.403 23.24 117.979 23.448 117.659 23.864C117.355 24.264 117.203 24.976 117.203 26C117.203 27.024 117.355 27.744 117.659 28.16C117.963 28.576 118.387 28.784 118.931 28.784ZM153.888 16.16V32H149.568V25.664L149.664 20.552H149.616L146.136 32H142.2L138.768 20.552H138.696L138.792 25.664V32H134.472V16.16H141.384L143.52 23.672L144.312 26.816H144.36L145.152 23.672L147.288 16.16H153.888ZM160.433 32.24C159.617 32.24 158.905 32.104 158.297 31.832C157.705 31.544 157.241 31.096 156.905 30.488C156.585 29.864 156.425 29.056 156.425 28.064V20H161.273V26.936C161.273 27.544 161.385 27.976 161.609 28.232C161.833 28.488 162.161 28.616 162.593 28.616C162.817 28.616 163.025 28.576 163.217 28.496C163.409 28.4 163.569 28.264 163.697 28.088C163.841 27.912 163.945 27.68 164.009 27.392C164.089 27.104 164.129 26.768 164.129 26.384V20H168.977V32H164.633L164.513 29.6C164.145 30.48 163.617 31.144 162.929 31.592C162.241 32.024 161.409 32.24 160.433 32.24ZM173.924 15.536C174.596 15.536 175.14 15.688 175.556 15.992C175.988 16.28 176.3 16.664 176.492 17.144C176.7 17.624 176.804 18.136 176.804 18.68C176.804 19.48 176.628 20.24 176.276 20.96C175.924 21.68 175.468 22.304 174.908 22.832C174.364 23.36 173.796 23.744 173.204 23.984L171.332 22.664C171.764 22.472 172.18 22.24 172.58 21.968C172.98 21.696 173.332 21.4 173.636 21.08C173.956 20.76 174.196 20.432 174.356 20.096L174.236 20C174.14 20.064 174.02 20.12 173.876 20.168C173.748 20.2 173.572 20.216 173.348 20.216C173.028 20.216 172.708 20.136 172.388 19.976C172.068 19.816 171.796 19.584 171.572 19.28C171.348 18.96 171.236 18.56 171.236 18.08C171.236 17.488 171.364 17.008 171.62 16.64C171.876 16.272 172.212 16 172.628 15.824C173.044 15.632 173.476 15.536 173.924 15.536ZM184.729 24.44C184.729 23.992 184.609 23.64 184.369 23.384C184.145 23.112 183.809 22.976 183.361 22.976C182.945 22.976 182.585 23.088 182.281 23.312C181.993 23.536 181.809 23.96 181.729 24.584L177.625 23.84C177.785 22.592 178.369 21.6 179.377 20.864C180.385 20.128 181.825 19.76 183.697 19.76C184.977 19.76 186.049 19.944 186.913 20.312C187.793 20.664 188.449 21.184 188.881 21.872C189.329 22.56 189.553 23.384 189.553 24.344V28.376C189.553 29.016 189.841 29.336 190.417 29.336C190.657 29.336 190.841 29.304 190.969 29.24L190.729 31.856C190.201 32.112 189.545 32.24 188.761 32.24C188.073 32.24 187.465 32.136 186.937 31.928C186.409 31.704 185.993 31.384 185.689 30.968C185.385 30.552 185.233 30.008 185.233 29.336V29.144L185.713 29.072C185.713 29.712 185.513 30.272 185.113 30.752C184.729 31.232 184.217 31.6 183.577 31.856C182.953 32.112 182.257 32.24 181.489 32.24C180.657 32.24 179.945 32.112 179.353 31.856C178.761 31.6 178.305 31.232 177.985 30.752C177.681 30.272 177.529 29.688 177.529 29C177.529 28.12 177.793 27.4 178.321 26.84C178.865 26.28 179.681 25.896 180.769 25.688L185.113 24.776L185.089 26.816L183.313 27.224C182.913 27.304 182.617 27.44 182.425 27.632C182.249 27.808 182.161 28.056 182.161 28.376C182.161 28.68 182.265 28.92 182.473 29.096C182.681 29.256 182.937 29.336 183.241 29.336C183.449 29.336 183.641 29.304 183.817 29.24C183.993 29.176 184.145 29.08 184.273 28.952C184.417 28.824 184.529 28.664 184.609 28.472C184.689 28.28 184.729 28.048 184.729 27.776V24.44ZM207.613 20H212.653L209.221 32H203.293L201.517 25.424L199.789 32H193.861L190.429 20H195.469L197.149 28.52L199.165 20H203.917L205.933 28.52L207.613 20ZM220.284 24.44C220.284 23.992 220.164 23.64 219.924 23.384C219.7 23.112 219.364 22.976 218.916 22.976C218.5 22.976 218.14 23.088 217.836 23.312C217.548 23.536 217.364 23.96 217.284 24.584L213.18 23.84C213.34 22.592 213.924 21.6 214.932 20.864C215.94 20.128 217.38 19.76 219.252 19.76C220.532 19.76 221.604 19.944 222.468 20.312C223.348 20.664 224.004 21.184 224.436 21.872C224.884 22.56 225.108 23.384 225.108 24.344V28.376C225.108 29.016 225.396 29.336 225.972 29.336C226.212 29.336 226.396 29.304 226.524 29.24L226.284 31.856C225.756 32.112 225.1 32.24 224.316 32.24C223.628 32.24 223.02 32.136 222.492 31.928C221.964 31.704 221.548 31.384 221.244 30.968C220.94 30.552 220.788 30.008 220.788 29.336V29.144L221.268 29.072C221.268 29.712 221.068 30.272 220.668 30.752C220.284 31.232 219.772 31.6 219.132 31.856C218.508 32.112 217.812 32.24 217.044 32.24C216.212 32.24 215.5 32.112 214.908 31.856C214.316 31.6 213.86 31.232 213.54 30.752C213.236 30.272 213.084 29.688 213.084 29C213.084 28.12 213.348 27.4 213.876 26.84C214.42 26.28 215.236 25.896 216.324 25.688L220.668 24.776L220.644 26.816L218.868 27.224C218.468 27.304 218.172 27.44 217.98 27.632C217.804 27.808 217.716 28.056 217.716 28.376C217.716 28.68 217.82 28.92 218.028 29.096C218.236 29.256 218.492 29.336 218.796 29.336C219.004 29.336 219.196 29.304 219.372 29.24C219.548 29.176 219.7 29.08 219.828 28.952C219.972 28.824 220.084 28.664 220.164 28.472C220.244 28.28 220.284 28.048 220.284 27.776V24.44ZM227.699 32V20H232.067L232.283 24.632L231.779 24.104C231.907 23.176 232.171 22.392 232.571 21.752C232.971 21.096 233.483 20.6 234.107 20.264C234.747 19.928 235.483 19.76 236.315 19.76C237.131 19.76 237.827 19.92 238.403 20.24C238.995 20.544 239.451 21.008 239.771 21.632C240.091 22.24 240.251 22.992 240.251 23.888V32H235.403V25.136C235.403 24.464 235.291 24.008 235.067 23.768C234.859 23.512 234.555 23.384 234.155 23.384C233.851 23.384 233.571 23.464 233.315 23.624C233.075 23.768 232.883 24.008 232.739 24.344C232.611 24.68 232.547 25.12 232.547 25.664V32H227.699ZM249.182 24.44C249.182 23.992 249.062 23.64 248.822 23.384C248.598 23.112 248.262 22.976 247.814 22.976C247.398 22.976 247.038 23.088 246.734 23.312C246.446 23.536 246.262 23.96 246.182 24.584L242.078 23.84C242.238 22.592 242.822 21.6 243.83 20.864C244.838 20.128 246.278 19.76 248.15 19.76C249.43 19.76 250.502 19.944 251.366 20.312C252.246 20.664 252.902 21.184 253.334 21.872C253.782 22.56 254.006 23.384 254.006 24.344V28.376C254.006 29.016 254.294 29.336 254.87 29.336C255.11 29.336 255.294 29.304 255.422 29.24L255.182 31.856C254.654 32.112 253.998 32.24 253.214 32.24C252.526 32.24 251.918 32.136 251.39 31.928C250.862 31.704 250.446 31.384 250.142 30.968C249.838 30.552 249.686 30.008 249.686 29.336V29.144L250.166 29.072C250.166 29.712 249.966 30.272 249.566 30.752C249.182 31.232 248.67 31.6 248.03 31.856C247.406 32.112 246.71 32.24 245.942 32.24C245.11 32.24 244.398 32.112 243.806 31.856C243.214 31.6 242.758 31.232 242.438 30.752C242.134 30.272 241.982 29.688 241.982 29C241.982 28.12 242.246 27.4 242.774 26.84C243.318 26.28 244.134 25.896 245.222 25.688L249.566 24.776L249.542 26.816L247.766 27.224C247.366 27.304 247.07 27.44 246.878 27.632C246.702 27.808 246.614 28.056 246.614 28.376C246.614 28.68 246.718 28.92 246.926 29.096C247.134 29.256 247.39 29.336 247.694 29.336C247.902 29.336 248.094 29.304 248.27 29.24C248.446 29.176 248.598 29.08 248.726 28.952C248.87 28.824 248.982 28.664 249.062 28.472C249.142 28.28 249.182 28.048 249.182 27.776V24.44ZM256.598 32V15.056H261.446V22.328C261.782 21.496 262.27 20.864 262.91 20.432C263.566 19.984 264.334 19.76 265.214 19.76C266.03 19.76 266.726 19.92 267.302 20.24C267.894 20.544 268.35 21.008 268.67 21.632C268.99 22.24 269.15 22.992 269.15 23.888V32H264.302V25.184C264.302 24.496 264.19 24.024 263.966 23.768C263.758 23.512 263.462 23.384 263.078 23.384C262.758 23.384 262.47 23.464 262.214 23.624C261.974 23.784 261.782 24.04 261.638 24.392C261.51 24.728 261.446 25.16 261.446 25.688V32H256.598Z" fill="black"/>
<path d="M0.468946 23.9561C1.31279 20.5842 3.2671 17.5899 6.02069 15.45C8.77432 13.3101 12.1689 12.1476 15.6639 12.1476C19.159 12.1476 22.5536 13.3101 25.3072 15.45C28.0608 17.5899 30.0151 20.5842 30.8589 23.9561H29.4864C27.1711 23.9222 24.9032 24.6101 23.0012 25.9233C22.8914 26.0023 22.7768 26.0745 22.6581 26.1393H22.498C22.3792 26.0745 22.2646 26.0023 22.1548 25.9233C20.236 24.6405 17.9762 23.9554 15.6639 23.9554C13.3517 23.9554 11.0918 24.6405 9.17304 25.9233C9.06324 26.0023 8.94863 26.0745 8.82991 26.1393H8.66978C8.55106 26.0745 8.43645 26.0023 8.32665 25.9233C6.42467 24.6101 4.1568 23.9222 1.84147 23.9561H0.468946ZM27.0159 31.0857C27.7204 30.5403 28.5937 30.2549 29.4864 30.2784H31.3279V26.6283H29.4864C27.9139 26.6094 26.3775 27.096 25.1058 28.0156C24.3901 28.5401 23.5244 28.8231 22.6352 28.8231C21.746 28.8231 20.8803 28.5401 20.1647 28.0156C18.8607 27.1131 17.3099 26.6293 15.7211 26.6293C14.1323 26.6293 12.5816 27.1131 11.2776 28.0156C10.5619 28.5401 9.6962 28.8231 8.80703 28.8231C7.91786 28.8231 7.05215 28.5401 6.33649 28.0156C5.04906 27.0841 3.49056 26.597 1.89866 26.6283H0V30.2784H1.84147C2.73419 30.2549 3.60745 30.5403 4.31202 31.0857C5.61363 31.9888 7.16263 32.473 8.74984 32.473C10.3371 32.473 11.8861 31.9888 13.1877 31.0857C13.8932 30.542 14.7657 30.2568 15.6582 30.2784C16.5513 30.2529 17.4251 30.5386 18.1288 31.0857C19.4328 31.9883 20.9835 32.472 22.5723 32.472C24.1611 32.472 25.7118 31.9883 27.0159 31.0857ZM27.0159 37.6127C27.7204 37.0673 28.5937 36.7819 29.4864 36.8054H31.3279V33.1553H29.4864C27.9139 33.1364 26.3775 33.623 25.1058 34.5425C24.3901 35.0671 23.5244 35.3501 22.6352 35.3501C21.746 35.3501 20.8803 35.0671 20.1647 34.5425C18.8607 33.6401 17.3099 33.1564 15.7211 33.1564C14.1323 33.1564 12.5816 33.6401 11.2776 34.5425C10.5619 35.0671 9.6962 35.3501 8.80703 35.3501C7.91786 35.3501 7.05215 35.0671 6.33649 34.5425C5.04906 33.6113 3.49056 33.124 1.89866 33.1553H0V36.8054H1.84147C2.73419 36.7819 3.60745 37.0673 4.31202 37.6127C5.61363 38.5158 7.16263 39 8.74984 39C10.3371 39 11.8861 38.5158 13.1877 37.6127C13.8932 37.069 14.7657 36.7838 15.6582 36.8054C16.5513 36.7799 17.4251 37.0656 18.1288 37.6127C19.4328 38.5153 20.9835 38.999 22.5723 38.999C24.1611 38.999 25.7118 38.5153 27.0159 37.6127Z" fill="black"/>
<path d="M15.6639 9.59016C18.3122 9.59016 20.459 7.44333 20.459 4.79508C20.459 2.14683 18.3122 0 15.6639 0C15.4299 0 15.1997 0.0167711 14.9746 0.0491769C16.6361 0.329556 17.9016 1.77518 17.9016 3.51639C17.9016 5.45844 16.3273 7.03279 14.3852 7.03279C12.644 7.03279 11.1984 5.76722 10.918 4.10577C10.8856 4.33087 10.8688 4.56102 10.8688 4.79508C10.8688 7.44333 13.0157 9.59016 15.6639 9.59016Z" fill="black"/>
</svg>
