<?xml version="1.0" encoding="utf-8"?>
<!-- Generator: Adobe Illustrator 24.3.0, SVG Export Plug-In . SVG Version: 6.00 Build 0)  -->
<svg version="1.1" id="Layer_1" xmlns="http://www.w3.org/2000/svg" xmlns:xlink="http://www.w3.org/1999/xlink" x="0px" y="0px"
	 viewBox="0 0 1200 1200" style="enable-background:new 0 0 1200 1200;" xml:space="preserve">
<style type="text/css">
	.st0{fill:#B23256;}
	.st1{fill:#31AA75;}
</style>
<g>
	<path class="st0" d="M864.02,604.87l28.22-15.21v42.32c30.23,32.06,56.61,71.82,73.28,123.67V528.1c0-13.01-6.78-24.92-17.77-31.51
		c-11.18-6.6-24.92-6.96-36.28-0.73l-112.31,60.83l-18.32,9.89l-73.47,39.94l-18.14,9.89l-89.04,48.18l-87.76-47.45l-18.5-10.08
		l-73.65-39.94l-18.14-9.89l-113.22-61.38c-11.36-6.23-25.1-5.86-36.28,0.73c-11.18,6.6-17.95,18.5-17.95,31.51v228.46
		c16.49-51.85,43.05-91.6,73.28-123.67v-43.24l28.95,15.76l17.04,9.16l70.54,38.11l17.77,9.71l140.52,76.03
		c10.81,5.86,24,5.86,34.81,0l141.26-76.4l17.77-9.71l70.35-38.11L864.02,604.87z"/>
	<circle class="st0" cx="271.06" cy="389.78" r="74.22"/>
	<circle class="st0" cx="928.94" cy="389.78" r="74.22"/>
	<path class="st1" d="M326.3,639.86c-6.23,6.23-12.46,12.82-18.32,19.97c-39.94,47.64-69.99,111.94-73.28,206.29
		c-0.18,6.05-0.37,12.09-0.37,18.32h0.37h72.92h0.37v-18.14c1.65-37.38,8.06-68.52,18.32-95.09c17.95-46.9,47.45-79.33,82.08-106.26
		l-69.07-37.56C334.91,631.43,330.51,635.46,326.3,639.86z"/>
	<path class="st1" d="M601.85,513.26c23.45,33.89,55.33,59.36,88.12,81.71l73.28-39.76c-79.51-51.12-124.58-83.91-124.58-165.44
		c0-20.15-16.49-36.64-36.64-36.64c-20.34,0-36.64,16.49-36.64,36.64c0,81.53-45.8,114.51-126.78,165.62
		c-0.18,0.18-0.55,0.37-0.73,0.37l73.65,39.94C545.05,573.17,577.85,547.7,601.85,513.26z"/>
	<path class="st1" d="M892.24,658.91c-5.86-7.15-12.09-13.74-18.32-20.15c-4.03-4.03-8.06-7.88-12.28-11.73l-69.07,37.37
		c34.26,26.93,63.57,59.36,81.35,106.08c10.26,26.56,16.67,58.08,18.32,95.82v18.14h0.37h72.92h0.37c0-6.23-0.18-12.27-0.37-18.32
		C962.22,771.22,932.36,706.73,892.24,658.91z"/>
</g>
</svg>
